#N canvas 285 418 450 300 12;
#X obj 192 137 adsr, f 21;
#X obj 105 138 3osc;
#X obj 148 172 *~;
#X obj 173 105 bng 15 250 50 0 empty empty empty 17 7 0 10 -262144
-1 -1;
#X obj 94 15 inlet;
#X obj 320 13 inlet;
#X obj 94 40 t b f;
#X obj 148 197 outlet~;
#X obj 7 7 vsl 15 128 0 0.2 0 0 empty empty empty 0 -9 0 10 -262144
-1 -1 4900 1;
#X obj 36 6 vsl 15 128 0 0.1 0 0 empty empty empty 0 -9 0 10 -262144
-1 -1 3700 1;
#X connect 0 0 2 1;
#X connect 1 0 2 0;
#X connect 2 0 7 0;
#X connect 3 0 0 0;
#X connect 4 0 6 0;
#X connect 5 0 0 5;
#X connect 6 0 3 0;
#X connect 6 1 1 0;
#X connect 8 0 1 1;
#X connect 9 0 1 2;
