#N canvas 173 379 772 547 12;
#X obj 73 107 osc~;
#X obj 160 107 osc~;
#X obj 259 107 osc~;
#X obj 160 81 * 2;
#X obj 259 80 * 3;
#X obj 203 31 vsl 15 128 0 0.3 0 0 empty empty empty 0 -9 0 10 -262144
-1 -1 0 1;
#X obj 316 33 vsl 15 128 0 0.1 0 0 empty empty empty 0 -9 0 10 -262144
-1 -1 0 1;
#X obj 168 239 +~;
#X obj 168 264 +~;
#X obj 168 352 outlet~;
#X obj 75 14 inlet;
#X obj 203 4 inlet;
#X obj 316 5 inlet;
#X obj 169 311 /~;
#X floatatom 221 312 5 0 0 0 - - -;
#X obj 316 169 f 0.02;
#X obj 203 167 f 0.12;
#X obj 449 63 loadbang;
#X obj 178 196 *~;
#X obj 288 196 *~;
#X obj 234 257 + 1;
#X obj 234 282 +;
#X connect 0 0 7 0;
#X connect 1 0 18 0;
#X connect 2 0 19 0;
#X connect 3 0 1 0;
#X connect 4 0 2 0;
#X connect 5 0 16 0;
#X connect 6 0 15 0;
#X connect 7 0 8 0;
#X connect 8 0 13 0;
#X connect 10 0 0 0;
#X connect 10 0 3 0;
#X connect 10 0 4 0;
#X connect 11 0 5 0;
#X connect 12 0 6 0;
#X connect 13 0 9 0;
#X connect 15 0 19 1;
#X connect 15 0 21 1;
#X connect 16 0 18 1;
#X connect 16 0 20 0;
#X connect 17 0 15 0;
#X connect 17 0 16 0;
#X connect 18 0 7 1;
#X connect 19 0 8 1;
#X connect 20 0 21 0;
#X connect 21 0 13 1;
