#N canvas 700 321 646 511 12;
#X obj 166 39 inlet;
#X obj 226 39 inlet;
#X obj 286 39 inlet;
#X obj 346 39 inlet;
#X text 161 18 A (ms);
#X text 221 18 D (ms);
#X text 281 18 S (%);
#X text 341 18 R (ms);
#X obj 406 39 inlet;
#X text 401 18 Dur (ms);
#X obj 286 152 moses 1;
#X obj 306 179 / 100;
#X obj 286 205 f;
#X obj 406 203 delay;
#X obj 260 375 vline~;
#X obj 406 175 f;
#X obj 36 36 inlet;
#X obj 36 61 t b b b;
#X obj 226 64 f 50;
#X obj 286 65 f 0.8;
#X obj 346 64 f 150;
#X obj 95 13 loadbang;
#X obj 260 425 outlet~;
#X obj 261 399 lop~ 10, f 10;
#X obj 166 64 f 100;
#X msg 115 335 0 \, 1 100 0 \, 0.8 50 100;
#X msg 406 228 0 150;
#X connect 0 0 24 0;
#X connect 1 0 18 0;
#X connect 2 0 19 0;
#X connect 3 0 20 0;
#X connect 8 0 15 1;
#X connect 10 0 12 0;
#X connect 10 1 11 0;
#X connect 11 0 12 0;
#X connect 13 0 26 0;
#X connect 14 0 23 0;
#X connect 15 0 13 0;
#X connect 16 0 17 0;
#X connect 17 0 15 0;
#X connect 17 1 25 0;
#X connect 19 0 10 0;
#X connect 21 0 18 0;
#X connect 21 0 19 0;
#X connect 21 0 20 0;
#X connect 21 0 24 0;
#X connect 23 0 22 0;
#X connect 25 0 14 0;
#X connect 26 0 14 0;
