#N canvas 603 243 891 601 12;
#X obj 76 199 unpack f f;
#X obj 89 262 synth;
#X obj 89 312 dac~;
#N canvas 0 50 450 250 (subpatch) 0;
#X array array1 44100 float 2;
#X coords 0 1 44100 -1 200 140 1 0 0;
#X restore 565 58 graph;
#X obj 193 290 tabwrite~ array1;
#X obj 179 205 t b;
#X obj 76 224 mtof;
#X obj 76 96 r oscMsg;
#X connect 0 0 6 0;
#X connect 0 1 1 1;
#X connect 1 0 2 0;
#X connect 1 0 4 0;
#X connect 1 0 2 1;
#X connect 5 0 4 0;
#X connect 6 0 1 0;
#X connect 7 0 0 0;
#X connect 7 0 5 0;
