#N canvas 173 379 772 547 12;
#X obj 73 107 osc~;
#X obj 160 107 osc~;
#X obj 259 107 osc~;
#X obj 160 81 * 2;
#X obj 259 80 * 3;
#X obj 203 31 vsl 15 128 0 0.3 0 0 empty empty empty 0 -9 0 10 -262144
-1 -1 0 1;
#X obj 316 33 vsl 15 128 0 0.1 0 0 empty empty empty 0 -9 0 10 -262144
-1 -1 0 1;
#X floatatom 316 169 5 0 0 0 - - -;
#X floatatom 203 167 5 0 0 0 - - -;
#X obj 168 239 +~;
#X obj 168 264 +~;
#X obj 168 289 outlet~;
#X obj 75 14 inlet;
#X obj 203 4 inlet;
#X obj 316 5 inlet;
#X obj 178 196 *~ 0.12;
#X obj 288 196 *~ 0.02;
#X connect 0 0 9 0;
#X connect 1 0 15 0;
#X connect 2 0 16 0;
#X connect 3 0 1 0;
#X connect 4 0 2 0;
#X connect 5 0 8 0;
#X connect 6 0 7 0;
#X connect 7 0 16 1;
#X connect 8 0 15 1;
#X connect 9 0 10 0;
#X connect 10 0 11 0;
#X connect 12 0 0 0;
#X connect 12 0 3 0;
#X connect 12 0 4 0;
#X connect 13 0 5 0;
#X connect 14 0 6 0;
#X connect 15 0 9 1;
#X connect 16 0 10 1;
