#N canvas 1352 135 450 389 12;
#X msg 76 46 listen 8080;
#X obj 76 71 netreceive -u -b;
#X obj 76 96 oscparse;
#X obj 76 149 route crescendo;
#X obj 76 121 list trim;
#X obj 76 174 route play;
#X obj 76 199 unpack f f;
#X obj 90 235 synth;
#X obj 76 17 loadbang;
#X obj 90 285 dac~;
#N canvas 0 50 450 250 (subpatch) 0;
#X array array1 44100 float 2;
#X coords 0 1 44100 -1 200 140 1 0 0;
#X restore 229 143 graph;
#X obj 193 290 tabwrite~ array1;
#X obj 179 205 t b;
#X connect 0 0 1 0;
#X connect 1 0 2 0;
#X connect 2 0 4 0;
#X connect 3 0 5 0;
#X connect 4 0 3 0;
#X connect 5 0 6 0;
#X connect 5 0 12 0;
#X connect 6 0 7 0;
#X connect 6 1 7 1;
#X connect 7 0 9 0;
#X connect 7 0 11 0;
#X connect 7 0 9 1;
#X connect 8 0 0 0;
#X connect 12 0 11 0;
