#N canvas 1326 148 450 300 12;
#X msg 76 46 listen 8080;
#X obj 76 71 netreceive -u -b;
#X obj 76 96 oscparse;
#X obj 76 149 route crescendo;
#X obj 76 121 list trim;
#X obj 76 174 route play;
#X obj 76 199 unpack f f;
#X obj 90 235 synth;
#X obj 90 260 dac~;
#X obj 76 17 loadbang;
#X connect 0 0 1 0;
#X connect 1 0 2 0;
#X connect 2 0 4 0;
#X connect 3 0 5 0;
#X connect 4 0 3 0;
#X connect 5 0 6 0;
#X connect 6 0 7 0;
#X connect 6 1 7 1;
#X connect 7 0 8 0;
#X connect 9 0 0 0;
